# xmcd
#
# Track frame offsets: 
#        150
#        17298
#        35069
#        56531
#        75826
#        91852
#        109983
#        133020
#        151978
#        173520
#        196418
#        212685
#        231435
#        253951
#        269026
#        285070
#        306146
#        327781
#        348274
#
# Disc length: 4852 seconds
#
# Revision: 4
# Processed by: cddbd v1.5.2PL0 Copyright (c) Steve Scherf et al.
# Submitted via: ExactAudioCopy v1.0b3
#
DISCID=fe12f213
DTITLE=Various Artist - Black Summer Party - Best of Vol. 4 [CD 2)
DYEAR=2007
DGENRE=Pop
TTITLE0=Rihanna - Unfaithful (Radio Edit)
TTITLE1=John Legend - Save Room (Album Version, Clean Version)
TTITLE2=Bobby Valentino feat. Timbaland - Anonymous (Main)
TTITLE3=Massari - Rush the Floor (Album Version)
TTITLE4=Christina Milian feat. Young Jeezy - Say I (Main)
TTITLE5=Lloyd Banks feat. 50 Cent - Hands Up (Album Version Explicit)
TTITLE6=Blackstreet feat. Dr. Dre - No Diggity (Album Version)
TTITLE7=Missy Elliott - The Rain (Supa Dupa Fly LP Version)
TTITLE8=Nelly - E. I. (Album Version)
TTITLE9=Ludacris feat. Nate Dogg - Area Codes (Album Version)
TTITLE10=Black Eyed Peas - Joints and Jam (Album Version Explicit)
TTITLE11=Arrested Development - Mr. Wendal
TTITLE12=D-12 - My Band (Album Version Explicit)
TTITLE13=Eminem feat. Dr. Dre - Guilty Conscience (Album Version Expli
TTITLE13=cit)
TTITLE14=Snoop Dogg - Gin and Juice
TTITLE15=2Pac feat. Snoop Dogg - Wanted Dead or Alive (Album Version)
TTITLE16=LL Cool J - Mama Said Knock You Out
TTITLE17=Naughty By Nature - O.P.P. (Album Version)
TTITLE18=Salt 'N' Pepa - Push It (Original)
EXTD=
EXTT0=
EXTT1=
EXTT2=
EXTT3=
EXTT4=
EXTT5=
EXTT6=
EXTT7=
EXTT8=
EXTT9=
EXTT10=
EXTT11=
EXTT12=
EXTT13=
EXTT14=
EXTT15=
EXTT16=
EXTT17=
EXTT18=
PLAYORDER=
